<svg xmlns="http://www.w3.org/2000/svg" xmlns:xlink="http://www.w3.org/1999/xlink" viewBox="0 0 24 24" fill="#7E7A7A">
  <path d="M12 3C9.794 3 8 4.794 8 7C8 9.206 9.794 11 12 11C14.206 11 16 9.206 16 7C16 4.794 14.206 3 12 3 z M 12 5C13.103 5 14 5.897 14 7C14 8.103 13.103 9 12 9C10.897 9 10 8.103 10 7C10 5.897 10.897 5 12 5 z M 9.4355469 14.263672C6.4565469 14.814672 3 16.228 3 18.5L3 21L21 21L21 18.5C21 16.228 17.543453 14.813672 14.564453 14.263672L12 16.828125L9.4355469 14.263672 z M 8.7929688 16.449219L10.585938 18.242188L11.34375 19L5 19L5 18.5C5 18.071 6.2989688 17.074219 8.7929688 16.449219 z M 15.207031 16.449219C17.701031 17.074219 19 18.071 19 18.5L19 19L12.65625 19L13.414062 18.242188L15.207031 16.449219 z" fill="#7E7A7A" />
</svg>